<svg width="24" height="16" viewBox="0 0 24 16" fill="none" xmlns="http://www.w3.org/2000/svg">
<path d="M1.81597 0.199951H22.18C22.8722 0.199951 23.4359 0.752451 23.4359 1.43089V14.565C23.4359 15.2434 22.8722 15.7959 22.18 15.7959H1.81597C1.12377 15.8 0.560059 15.2475 0.560059 14.569V1.43089C0.560059 0.752451 1.12377 0.199951 1.81597 0.199951Z" fill="#B22234"/>
<path d="M0.568348 1.30908H23.4359C23.4401 1.34971 23.4442 1.39033 23.4442 1.43502V2.62939H0.560059V1.43096C0.560059 1.39033 0.564204 1.34971 0.568348 1.30908ZM23.4401 3.72221V5.03846H0.560059V3.72221H23.4401ZM23.4401 6.13533V7.45158H0.560059V6.13533H23.4401ZM23.4401 8.54846V9.86471H0.560059V8.54846H23.4401ZM23.4401 10.9616V12.2778H0.560059V10.9616H23.4401ZM23.4401 13.3747V14.565C23.4401 14.6056 23.4359 14.6503 23.4318 14.691H0.568348C0.564204 14.6544 0.560059 14.6097 0.560059 14.5691V13.3788H23.4401V13.3747Z" fill="white"/>
<path d="M9.18151 0.199951V8.6012H0.560059V1.43089C0.560059 0.752451 1.12377 0.199951 1.81597 0.199951H9.18151Z" fill="#3C3B6E"/>
<path d="M1.06994 1.36182L1.35594 2.23525L0.601562 1.69494H1.53832L0.779794 2.23525L1.06994 1.36182Z" fill="white"/>
<path d="M1.06994 3.05176L1.35594 3.9252L0.601562 3.38488H1.53832L0.779794 3.9252L1.06994 3.05176Z" fill="white"/>
<path d="M1.06994 4.7417L1.35594 5.61514L0.601562 5.07482H1.53832L0.779794 5.61514L1.06994 4.7417Z" fill="white"/>
<path d="M1.06994 6.43188L1.35594 7.30532L0.601562 6.76501H1.53832L0.779794 7.30532L1.06994 6.43188Z" fill="white"/>
<path d="M2.08129 0.516968L2.37144 1.39041L1.61292 0.850093H2.55381L1.79115 1.39041L2.08129 0.516968Z" fill="white"/>
<path d="M2.08129 2.20691L2.37144 3.08035L1.61292 2.54003H2.55381L1.79115 3.08035L2.08129 2.20691Z" fill="white"/>
<path d="M2.08129 3.89685L2.37144 4.77029L1.61292 4.22998H2.55381L1.79115 4.77029L2.08129 3.89685Z" fill="white"/>
<path d="M2.08129 5.58704L2.37144 6.46047L1.61292 5.92016H2.55381L1.79115 6.46047L2.08129 5.58704Z" fill="white"/>
<path d="M2.08129 7.27698L2.37144 8.15041L1.61292 7.6101H2.55381L1.79115 8.15041L2.08129 7.27698Z" fill="white"/>
<path d="M3.09679 1.36182L3.38694 2.23525L2.62842 1.69494H3.56517L2.80665 2.23525L3.09679 1.36182Z" fill="white"/>
<path d="M3.09679 3.05176L3.38694 3.9252L2.62842 3.38488H3.56517L2.80665 3.9252L3.09679 3.05176Z" fill="white"/>
<path d="M3.09679 4.7417L3.38694 5.61514L2.62842 5.07482H3.56517L2.80665 5.61514L3.09679 4.7417Z" fill="white"/>
<path d="M3.09679 6.43188L3.38694 7.30532L2.62842 6.76501H3.56517L2.80665 7.30532L3.09679 6.43188Z" fill="white"/>
<path d="M4.1123 0.516968L4.3983 1.39041L3.64392 0.850093H4.58068L3.82215 1.39041L4.1123 0.516968Z" fill="white"/>
<path d="M4.1123 2.20691L4.3983 3.08035L3.64392 2.54003H4.58068L3.82215 3.08035L4.1123 2.20691Z" fill="white"/>
<path d="M4.1123 3.89685L4.3983 4.77029L3.64392 4.22998H4.58068L3.82215 4.77029L4.1123 3.89685Z" fill="white"/>
<path d="M4.1123 5.58704L4.3983 6.46047L3.64392 5.92016H4.58068L3.82215 6.46047L4.1123 5.58704Z" fill="white"/>
<path d="M4.1123 7.27698L4.3983 8.15041L3.64392 7.6101H4.58068L3.82215 8.15041L4.1123 7.27698Z" fill="white"/>
<path d="M5.12365 1.36182L5.41379 2.23525L4.65527 1.69494H5.59203L4.83351 2.23525L5.12365 1.36182Z" fill="white"/>
<path d="M5.12365 3.05176L5.41379 3.9252L4.65527 3.38488H5.59203L4.83351 3.9252L5.12365 3.05176Z" fill="white"/>
<path d="M5.12365 4.7417L5.41379 5.61514L4.65527 5.07482H5.59203L4.83351 5.61514L5.12365 4.7417Z" fill="white"/>
<path d="M5.12365 6.43188L5.41379 7.30532L4.65527 6.76501H5.59203L4.83351 7.30532L5.12365 6.43188Z" fill="white"/>
<path d="M6.13915 0.516968L6.4293 1.39041L5.67078 0.850093H6.60753L5.84901 1.39041L6.13915 0.516968Z" fill="white"/>
<path d="M6.13915 2.20691L6.4293 3.08035L5.67078 2.54003H6.60753L5.84901 3.08035L6.13915 2.20691Z" fill="white"/>
<path d="M6.13915 3.89685L6.4293 4.77029L5.67078 4.22998H6.60753L5.84901 4.77029L6.13915 3.89685Z" fill="white"/>
<path d="M6.13915 5.58704L6.4293 6.46047L5.67078 5.92016H6.60753L5.84901 6.46047L6.13915 5.58704Z" fill="white"/>
<path d="M6.13915 7.27698L6.4293 8.15041L5.67078 7.6101H6.60753L5.84901 8.15041L6.13915 7.27698Z" fill="white"/>
<path d="M7.1505 1.36182L7.44065 2.23525L6.68213 1.69494H7.61888L6.86451 2.23525L7.1505 1.36182Z" fill="white"/>
<path d="M7.1505 3.05176L7.44065 3.9252L6.68213 3.38488H7.61888L6.86451 3.9252L7.1505 3.05176Z" fill="white"/>
<path d="M7.1505 4.7417L7.44065 5.61514L6.68213 5.07482H7.61888L6.86451 5.61514L7.1505 4.7417Z" fill="white"/>
<path d="M7.1505 6.43188L7.44065 7.30532L6.68213 6.76501H7.61888L6.86451 7.30532L7.1505 6.43188Z" fill="white"/>
<path d="M8.16601 0.516968L8.45615 1.39041L7.69763 0.850093H8.63439L7.87586 1.39041L8.16601 0.516968Z" fill="white"/>
<path d="M8.16601 2.20691L8.45615 3.08035L7.69763 2.54003H8.63439L7.87586 3.08035L8.16601 2.20691Z" fill="white"/>
<path d="M8.16601 3.89685L8.45615 4.77029L7.69763 4.22998H8.63439L7.87586 4.77029L8.16601 3.89685Z" fill="white"/>
<path d="M8.16601 5.58704L8.45615 6.46047L7.69763 5.92016H8.63439L7.87586 6.46047L8.16601 5.58704Z" fill="white"/>
<path d="M8.16601 7.27698L8.45615 8.15041L7.69763 7.6101H8.63439L7.87586 8.15041L8.16601 7.27698Z" fill="white"/>
</svg>
