<svg width="28" height="28" viewBox="0 0 28 28" fill="none" xmlns="http://www.w3.org/2000/svg">
<path d="M23.9812 10.4738L22.7312 5.47375C22.6625 5.195 22.4112 5 22.125 5H5.875C5.58875 5 5.3375 5.195 5.26875 5.47375L4.01875 10.4738C4.00625 10.5225 4 10.5738 4 10.625C4 11.6725 4.49625 12.5962 5.25 13.1637V21.875C5.25 22.22 5.53 22.5 5.875 22.5H12.125C12.47 22.5 12.75 22.22 12.75 21.875V17.5H15.25V21.875C15.25 22.22 15.53 22.5 15.875 22.5H22.125C22.47 22.5 22.75 22.22 22.75 21.875V13.1637C23.5037 12.5962 24 11.6725 24 10.625C24 10.5738 23.9937 10.5225 23.9812 10.4738ZM21.5 21.25H16.5V16.875C16.5 16.53 16.22 16.25 15.875 16.25H12.125C11.78 16.25 11.5 16.53 11.5 16.875V21.25H6.5V13.7C6.65375 13.7262 6.80875 13.75 6.96875 13.75C7.92125 13.75 8.76875 13.2763 9.3125 12.5413C9.85625 13.2763 10.7038 13.75 11.6562 13.75C12.6087 13.75 13.4563 13.2763 14 12.5413C14.5437 13.2763 15.3912 13.75 16.3438 13.75C17.2963 13.75 18.1438 13.2763 18.6875 12.5413C19.2312 13.2763 20.0788 13.75 21.0312 13.75C21.1912 13.75 21.3463 13.7262 21.5 13.7V21.25ZM21.0312 12.5C20.0837 12.5 19.3125 11.6588 19.3125 10.625C19.3125 10.28 19.0325 10 18.6875 10C18.3425 10 18.0625 10.28 18.0625 10.625C18.0625 11.6588 17.2913 12.5 16.3438 12.5C15.3962 12.5 14.625 11.6588 14.625 10.625C14.625 10.28 14.345 10 14 10C13.655 10 13.375 10.28 13.375 10.625C13.375 11.6588 12.6037 12.5 11.6562 12.5C10.7088 12.5 9.9375 11.6588 9.9375 10.625C9.9375 10.28 9.6575 10 9.3125 10C8.9675 10 8.6875 10.28 8.6875 10.625C8.6875 11.6588 7.91625 12.5 6.96875 12.5C6.04375 12.5 5.28625 11.6975 5.25125 10.6975L6.36375 6.25H21.6375L22.75 10.6975C22.7138 11.6975 21.9562 12.5 21.0312 12.5Z" fill="#EA5455"/>
</svg>
