<svg width="21" height="21" viewBox="0 0 21 21" fill="none" xmlns="http://www.w3.org/2000/svg">
<path d="M1 15.6283C1 16.3858 1.63706 17 2.42296 17H18.577C19.3629 17 20 16.3859 20 15.6283V13H1V15.6283Z" fill="#73AF00"/>
<path d="M18.577 4H2.42296C1.63706 4 1 4.61412 1 5.37172V8H20V5.37172C20 4.61412 19.3629 4 18.577 4Z" fill="#464655"/>
<path d="M20 8H1V13H20V8Z" fill="#C8414B"/>
<path d="M20 7.99988H1V8.99988H20V7.99988Z" fill="#F5F5F5"/>
<path d="M20 11.9999H1V12.9999H20V11.9999Z" fill="#F5F5F5"/>
<path d="M12.3319 7.61733C12.6074 7.04932 12.8948 5.73352 12.8948 5.73352C12.8948 5.73352 12.0394 6.77386 11.7639 7.34183C11.7061 7.46088 11.7306 7.5978 11.814 7.69042L8.67627 14.1597L8.88926 14.263L12.027 7.79373C12.1515 7.80191 12.2742 7.73638 12.3319 7.61733Z" fill="#F5F5F5"/>
<path d="M8.668 7.61733C8.39254 7.04932 8.1051 5.73352 8.1051 5.73352C8.1051 5.73352 8.96047 6.77386 9.23597 7.34183C9.29371 7.46088 9.26922 7.5978 9.18582 7.69042L12.3236 14.1597L12.1106 14.263L8.97283 7.79373C8.84839 7.80191 8.7257 7.73638 8.668 7.61733Z" fill="#F5F5F5"/>
<path d="M12 10.5C12 12.433 10.7762 14 10.5 14C10.2238 14 9 12.433 9 10.5C9 8.56698 10.2238 7 10.5 7C10.7762 7 12 8.56698 12 10.5Z" fill="#C8414B"/>
<path d="M11.8681 12.1506C12.0696 11.6611 12.2102 11.0988 12.2102 10.5C12.2102 9.90126 12.0696 9.33902 11.8681 8.84949C11.6666 9.33898 11.526 9.90126 11.526 10.5C11.526 11.0988 11.6666 11.6611 11.8681 12.1506Z" fill="#464655"/>
<path d="M9.13142 8.84949C8.92994 9.33898 8.78931 9.90126 8.78931 10.5C8.78931 11.0988 8.9299 11.6611 9.13142 12.1506C9.3329 11.6611 9.47354 11.0988 9.47354 10.5C9.47354 9.90126 9.3329 9.33902 9.13142 8.84949Z" fill="#464655"/>
<path d="M10.5002 11.013C10.6891 11.013 10.8423 10.7832 10.8423 10.4998C10.8423 10.2164 10.6891 9.98669 10.5002 9.98669C10.3113 9.98669 10.1581 10.2164 10.1581 10.4998C10.1581 10.7832 10.3113 11.013 10.5002 11.013Z" fill="#F5F5F5"/>
<path d="M10.5516 7.07886V9.98669C10.6449 9.79253 10.8104 9.21879 10.8104 8.53277C10.8104 7.84672 10.6449 7.27301 10.5516 7.07886Z" fill="#F5F5F5"/>
<path d="M10.4487 7.07886C10.3554 7.27301 10.1899 7.84672 10.1899 8.53277C10.1899 9.21882 10.3554 9.79257 10.4487 9.98669V7.07886Z" fill="#F5F5F5"/>
<path d="M10.5516 11.0128V13.9206C10.6449 13.7265 10.8104 13.1527 10.8104 12.4667C10.8104 11.7807 10.6449 11.207 10.5516 11.0128Z" fill="#F5F5F5"/>
<path d="M10.4487 11.0128C10.3554 11.207 10.1899 11.7807 10.1899 12.4667C10.1899 13.1528 10.3554 13.7265 10.4487 13.9206V11.0128Z" fill="#F5F5F5"/>
</svg>
