<svg width="26" height="26" viewBox="0 0 26 26" fill="none" xmlns="http://www.w3.org/2000/svg">
<path d="M20.6423 3.0139C19.6354 3.11984 18.424 3.79015 16.9388 5.06312C14.2518 7.36617 11.0822 11.3426 9.04091 14.2038C7.55037 13.9713 5.97939 14.6088 5.04923 15.7715C3.34193 17.9057 4.77119 19.8102 3.16076 21.5083C2.88033 21.8039 2.98037 22.2897 3.35529 22.4502C5.98994 23.5782 9.35779 22.8752 10.9377 21.2093C11.9032 20.1912 12.4286 18.6882 12.1647 17.2733C14.9881 15.1068 18.8892 11.7671 21.0983 8.99648C22.3215 7.46222 22.9423 6.22804 22.9961 5.22343C23.0685 3.87003 22.0182 2.86929 20.6423 3.0139ZM10.0874 20.4028C9.01861 21.5298 6.65388 22.1862 4.54966 21.6249C5.72623 19.7483 4.71486 18.0654 5.96427 16.5036C6.98951 15.2221 9.05154 14.8633 10.2498 16.0615C11.6497 17.4617 10.9976 19.443 10.0874 20.4028ZM10.2074 14.5887C10.4946 14.1915 10.9451 13.5783 11.5078 12.8442L13.4304 14.767C12.7224 15.3493 12.1311 15.8162 11.7477 16.1144C11.4023 15.4942 10.8678 14.9383 10.2074 14.5887ZM21.8259 5.16078C21.6944 7.62187 16.2071 12.4272 14.3339 14.0132L12.2329 11.912C13.7742 9.96042 18.2978 4.43886 20.765 4.17941C21.4232 4.11007 21.8599 4.52542 21.8259 5.16078Z" fill="#28C76F"/>
</svg>
