<svg width="21" height="21" viewBox="0 0 21 21" fill="none" xmlns="http://www.w3.org/2000/svg">
<path d="M1 7V14L6 10.5L1 7Z" fill="#464655"/>
<path d="M18.61 4H4L9.76002 9H20V5.55135C20 4.69454 19.3777 4 18.61 4Z" fill="#FF4B55"/>
<path d="M4 17H18.61C19.3777 17 20 16.3055 20 15.4487V12H9.75998L4 17Z" fill="#41479B"/>
<path d="M3.11112 4H2.42296C1.63706 4 1 4.66529 1 5.48603V5.74537L6.75099 10.5L1 15.2548V15.514C1 16.3347 1.63706 17 2.42296 17H3.11093L9.31792 11.8684H20V9.13159H9.31799L3.11112 4Z" fill="#73AF00"/>
<path d="M4.06248 4H3L9.24771 9H20V8.3333H9.47718L4.06248 4Z" fill="#F5F5F5"/>
<path d="M1 6V6.82592L5.89876 10.4999L1 14.1741V15L7 10.4999L1 6Z" fill="#FFE15A"/>
<path d="M9.24779 12L3 17H4.06251L9.47722 12.6667H20V12H9.24779Z" fill="#F5F5F5"/>
</svg>
